<?xml version="1.0" encoding="utf-8"?>
<!-- Generator: Adobe Illustrator 24.1.2, SVG Export Plug-In . SVG Version: 6.00 Build 0)  -->
<svg version="1.1" id="LOGO" xmlns="http://www.w3.org/2000/svg" xmlns:xlink="http://www.w3.org/1999/xlink" x="0px" y="0px"
	 viewBox="0 0 80 80" style="enable-background:new 0 0 80 80;" xml:space="preserve">
<style type="text/css">
	.st0{enable-background:new    ;}
	.st1{fill:#FFFFFF;}
</style>
<rect id="CONTAINER" width="80" height="80"/>
<g class="st0">
	<path class="st1" d="M34.1,11.4l9.4,2.2L29.4,67.4L20,65.3L34.1,11.4z"/>
	<path class="st1" d="M58.6,51.7c1.1,1.1,1.7,2.5,1.7,4.1s-0.6,3-1.7,4.1c-1.1,1.1-2.5,1.7-4.1,1.7c-1.6,0-3-0.6-4.1-1.7
		c-1.1-1.1-1.7-2.5-1.7-4.1s0.6-3,1.7-4.1c1.1-1.1,2.5-1.7,4.1-1.7C56.1,50,57.5,50.6,58.6,51.7z"/>
</g>
</svg>
